<svg width="50" height="50" fill="none" xmlns="http://www.w3.org/2000/svg"><circle cx="25" cy="25" r="25" fill="#FFA800"/><path d="M16.75 32.444H15.5c-.663 0-1.299-.292-1.768-.813A2.942 2.942 0 0 1 13 29.667v-13.89c0-.736.263-1.442.732-1.963.47-.521 1.105-.814 1.768-.814h20c.663 0 1.299.293 1.768.814.469.52.732 1.227.732 1.964v13.889c0 .736-.263 1.443-.732 1.964-.47.52-1.105.813-1.768.813h-1.25" stroke="#fff" stroke-width="3" stroke-linecap="round" stroke-linejoin="round"/><path d="M25.5 29.667 31.75 38h-12.5l6.25-8.333Z" stroke="#fff" stroke-width="3" stroke-linecap="round" stroke-linejoin="round"/></svg>